<svg xmlns="http://www.w3.org/2000/svg" xmlns:xlink="http://www.w3.org/1999/xlink" xmlns:s="https://github.com/nturley/netlistsvg" width="1477" height="900" viewBox="-40 -8 1477 900">
  <style>svg {
    stroke:#000;
    fill:none;
  }
  text {
    fill:#000;
    stroke:none;
    font-size:10px;
    font-weight: bold;
    font-family: "Courier New", monospace;
  }
  .nodelabel {
    text-anchor: middle;
  }
  .inputPortLabel {
    text-anchor: end;
  }
  .splitjoinBody {
    fill:#000;
  }</style>
  <rect x="-40" y="-8" width="1477" height="900" fill="#fff" stroke="none"/>
  <g s:type="generic" transform="translate(168,87)" s:width="30" s:height="40" id="cell_engine_leg">
    <text x="15" y="-4" class="nodelabel cell_engine_leg" s:attribute="ref">R183 39k</text>
    <rect width="30" height="20" s:generic="body" class="cell_engine_leg"/>
    <g transform="translate(0,10)" s:x="0" s:y="10" s:pid="in0" id="port_engine_leg~engine out">
      <text x="-3" y="-4" class="inputPortLabel cell_engine_leg">engine out</text>
    </g>
    <g transform="translate(30,10)" s:x="30" s:y="10" s:pid="out0" id="port_engine_leg~base missile attenuated">
      <text x="5" y="-4" style="fill:#000; stroke:none" class="cell_engine_leg">base missile attenuated</text>
    </g>
  </g>
  <g s:type="generic" transform="translate(1355,401.5)" s:width="30" s:height="40" id="cell_r17">
    <text x="15" y="-4" class="nodelabel cell_r17" s:attribute="ref">R17 390</text>
    <rect width="30" height="40" s:generic="body" class="cell_r17"/>
    <g transform="translate(0,10)" s:x="0" s:y="10" s:pid="in0" id="port_r17~GND">
      <text x="-3" y="-4" class="inputPortLabel cell_r17">GND</text>
    </g>
    <g transform="translate(0,30)" s:x="0" s:y="10" s:pid="in0" id="port_r17~PC1 LED return">
      <text x="-3" y="-4" class="inputPortLabel cell_r17">PC1 LED return</text>
    </g>
  </g>
  <g s:type="generic" transform="translate(758,209.5)" s:width="30" s:height="40" id="cell_pc1">
    <text x="15" y="-4" class="nodelabel cell_pc1" s:attribute="ref">PC1 MCD-725H</text>
    <rect width="30" height="40" s:generic="body" class="cell_pc1"/>
    <g transform="translate(0,10)" s:x="0" s:y="10" s:pid="in0" id="port_pc1~+6V (cell1)">
      <text x="-3" y="-4" class="inputPortLabel cell_pc1">+6V (cell1)</text>
    </g>
    <g transform="translate(0,30)" s:x="0" s:y="10" s:pid="in0" id="port_pc1~U8d out (led+)">
      <text x="-3" y="-4" class="inputPortLabel cell_pc1">U8d out (led+)</text>
    </g>
    <g transform="translate(30,10)" s:x="30" s:y="10" s:pid="out0" id="port_pc1~PC1 LED return (led-)">
      <text x="5" y="-4" style="fill:#000; stroke:none" class="cell_pc1">PC1 LED return (led-)</text>
    </g>
    <g transform="translate(30,30)" s:x="30" s:y="10" s:pid="out0" id="port_pc1~engine tuning node (cell2)">
      <text x="5" y="-4" style="fill:#000; stroke:none" class="cell_pc1">engine tuning node (cell2)</text>
    </g>
  </g>
  <g s:type="generic" transform="translate(523.3333333333334,158)" s:width="30" s:height="40" id="cell_u5a">
    <text x="15" y="-4" class="nodelabel cell_u5a" s:attribute="ref">U5a resonator</text>
    <rect width="30" height="40" s:generic="body" class="cell_u5a"/>
    <g transform="translate(0,10)" s:x="0" s:y="10" s:pid="in0" id="port_u5a~+5V (3)">
      <text x="-3" y="-4" class="inputPortLabel cell_u5a">+5V (3)</text>
    </g>
    <g transform="translate(30,10)" s:x="30" s:y="10" s:pid="out0" id="port_u5a~U5a in (2)">
      <text x="5" y="-4" style="fill:#000; stroke:none" class="cell_u5a">U5a in (2)</text>
    </g>
    <g transform="translate(30,30)" s:x="30" s:y="10" s:pid="out0" id="port_u5a~U5a out (1)">
      <text x="5" y="-4" style="fill:#000; stroke:none" class="cell_u5a">U5a out (1)</text>
    </g>
  </g>
  <g s:type="generic" transform="translate(1355,158)" s:width="30" s:height="40" id="cell_r21">
    <text x="15" y="-4" class="nodelabel cell_r21" s:attribute="ref">R21 470k</text>
    <rect width="30" height="40" s:generic="body" class="cell_r21"/>
    <g transform="translate(0,10)" s:x="0" s:y="10" s:pid="in0" id="port_r21~U5a in">
      <text x="-3" y="-4" class="inputPortLabel cell_r21">U5a in</text>
    </g>
    <g transform="translate(0,30)" s:x="0" s:y="10" s:pid="in0" id="port_r21~U5a out">
      <text x="-3" y="-4" class="inputPortLabel cell_r21">U5a out</text>
    </g>
  </g>
  <g s:type="generic" transform="translate(786.3333333333334,90)" s:width="30" s:height="40" id="cell_engine_bridged_t">
    <text x="15" y="-4" class="nodelabel cell_engine_bridged_t" s:attribute="ref">C26 10nF / C27 10nF</text>
    <rect width="30" height="40" s:generic="body" class="cell_engine_bridged_t"/>
    <g transform="translate(0,10)" s:x="0" s:y="10" s:pid="in0" id="port_engine_bridged_t~U5a in">
      <text x="-3" y="-4" class="inputPortLabel cell_engine_bridged_t">U5a in</text>
    </g>
    <g transform="translate(0,30)" s:x="0" s:y="10" s:pid="in0" id="port_engine_bridged_t~U5a out">
      <text x="-3" y="-4" class="inputPortLabel cell_engine_bridged_t">U5a out</text>
    </g>
    <g transform="translate(30,10)" s:x="30" s:y="10" s:pid="out0" id="port_engine_bridged_t~engine tuning node">
      <text x="5" y="-4" style="fill:#000; stroke:none" class="cell_engine_bridged_t">engine tuning node</text>
    </g>
  </g>
  <g s:type="generic" transform="translate(1095,90)" s:width="30" s:height="40" id="cell_r20">
    <text x="15" y="-4" class="nodelabel cell_r20" s:attribute="ref">R20 10k</text>
    <rect width="30" height="20" s:generic="body" class="cell_r20"/>
    <g transform="translate(0,10)" s:x="0" s:y="10" s:pid="in0" id="port_r20~engine tuning node">
      <text x="-3" y="-4" class="inputPortLabel cell_r20">engine tuning node</text>
    </g>
    <g transform="translate(30,10)" s:x="30" s:y="10" s:pid="out0" id="port_r20~R20/C28 junction">
      <text x="5" y="-4" style="fill:#000; stroke:none" class="cell_r20">R20/C28 junction</text>
    </g>
  </g>
  <g s:type="generic" transform="translate(1089.5,22)" s:width="30" s:height="40" id="cell_c28">
    <text x="15" y="-4" class="nodelabel cell_c28" s:attribute="ref">C28 2.2uF</text>
    <rect width="30" height="20" s:generic="body" class="cell_c28"/>
    <g transform="translate(0,10)" s:x="0" s:y="10" s:pid="in0" id="port_c28~R19/C28 junction">
      <text x="-3" y="-4" class="inputPortLabel cell_c28">R19/C28 junction</text>
    </g>
    <g transform="translate(30,10)" s:x="30" s:y="10" s:pid="out0" id="port_c28~R20/C28 junction">
      <text x="5" y="-4" style="fill:#000; stroke:none" class="cell_c28">R20/C28 junction</text>
    </g>
  </g>
  <g s:type="generic" transform="translate(794.5,22)" s:width="30" s:height="40" id="cell_r19">
    <text x="15" y="-4" class="nodelabel cell_r19" s:attribute="ref">R19 10k</text>
    <rect width="30" height="20" s:generic="body" class="cell_r19"/>
    <g transform="translate(0,10)" s:x="0" s:y="10" s:pid="in0" id="port_r19~U4a in">
      <text x="-3" y="-4" class="inputPortLabel cell_r19">U4a in</text>
    </g>
    <g transform="translate(30,10)" s:x="30" s:y="10" s:pid="out0" id="port_r19~R19/C28 junction">
      <text x="5" y="-4" style="fill:#000; stroke:none" class="cell_r19">R19/C28 junction</text>
    </g>
  </g>
  <g s:type="generic" transform="translate(532.5,90)" s:width="30" s:height="40" id="cell_r18">
    <text x="15" y="-4" class="nodelabel cell_r18" s:attribute="ref">R18 200k</text>
    <rect width="30" height="20" s:generic="body" class="cell_r18"/>
    <g transform="translate(0,10)" s:x="0" s:y="10" s:pid="in0" id="port_r18~NOISE 1">
      <text x="-3" y="-4" class="inputPortLabel cell_r18">NOISE 1</text>
    </g>
    <g transform="translate(30,10)" s:x="30" s:y="10" s:pid="out0" id="port_r18~U4a in">
      <text x="5" y="-4" style="fill:#000; stroke:none" class="cell_r18">U4a in</text>
    </g>
  </g>
  <g s:type="generic" transform="translate(505,22)" s:width="30" s:height="40" id="cell_u4a">
    <text x="15" y="-4" class="nodelabel cell_u4a" s:attribute="ref">U4a engine input</text>
    <rect width="30" height="20" s:generic="body" class="cell_u4a"/>
    <g transform="translate(30,10)" s:x="30" s:y="10" s:pid="out0" id="port_u4a~U4a in (2)">
      <text x="5" y="-4" style="fill:#000; stroke:none" class="cell_u4a">U4a in (2)</text>
    </g>
  </g>
  <g s:type="generic" transform="translate(1089.5,291)" s:width="30" s:height="40" id="cell_c29">
    <text x="15" y="-4" class="nodelabel cell_c29" s:attribute="ref">C29 2.2uF</text>
    <rect width="30" height="20" s:generic="body" class="cell_c29"/>
    <g transform="translate(0,10)" s:x="0" s:y="10" s:pid="in0" id="port_c29~U5a out">
      <text x="-3" y="-4" class="inputPortLabel cell_c29">U5a out</text>
    </g>
    <g transform="translate(30,10)" s:x="30" s:y="10" s:pid="out0" id="port_c29~tone A in">
      <text x="5" y="-4" style="fill:#000; stroke:none" class="cell_c29">tone A in</text>
    </g>
  </g>
  <g s:type="generic" transform="translate(1089.5,651)" s:width="30" s:height="40" id="cell_c51">
    <text x="15" y="-4" class="nodelabel cell_c51" s:attribute="ref">C51 22uF</text>
    <rect width="30" height="20" s:generic="body" class="cell_c51"/>
    <g transform="translate(0,10)" s:x="0" s:y="10" s:pid="in0" id="port_c51~U4c out">
      <text x="-3" y="-4" class="inputPortLabel cell_c51">U4c out</text>
    </g>
    <g transform="translate(30,10)" s:x="30" s:y="10" s:pid="out0" id="port_c51~U14 ch B in">
      <text x="5" y="-4" style="fill:#000; stroke:none" class="cell_c51">U14 ch B in</text>
    </g>
  </g>
  <g s:type="generic" transform="translate(1355,520.5)" s:width="30" s:height="40" id="cell_c52">
    <text x="15" y="-4" class="nodelabel cell_c52" s:attribute="ref">C52 680pF</text>
    <rect width="30" height="40" s:generic="body" class="cell_c52"/>
    <g transform="translate(0,10)" s:x="0" s:y="10" s:pid="in0" id="port_c52~GND">
      <text x="-3" y="-4" class="inputPortLabel cell_c52">GND</text>
    </g>
    <g transform="translate(0,30)" s:x="0" s:y="10" s:pid="in0" id="port_c52~U14 ch B RO">
      <text x="-3" y="-4" class="inputPortLabel cell_c52">U14 ch B RO</text>
    </g>
  </g>
  <g s:type="generic" transform="translate(505,453)" s:width="30" s:height="40" id="cell_r61">
    <text x="15" y="-4" class="nodelabel cell_r61" s:attribute="ref">R61 15k</text>
    <rect width="30" height="20" s:generic="body" class="cell_r61"/>
    <g transform="translate(0,10)" s:x="0" s:y="10" s:pid="in0" id="port_r61~NOISE 2">
      <text x="-3" y="-4" class="inputPortLabel cell_r61">NOISE 2</text>
    </g>
    <g transform="translate(30,10)" s:x="30" s:y="10" s:pid="out0" id="port_r61~R61/R62 junction">
      <text x="5" y="-4" style="fill:#000; stroke:none" class="cell_r61">R61/R62 junction</text>
    </g>
  </g>
  <g s:type="generic" transform="translate(1089.5,849)" s:width="30" s:height="40" id="cell_r62">
    <text x="15" y="-4" class="nodelabel cell_r62" s:attribute="ref">R62 15k</text>
    <rect width="30" height="20" s:generic="body" class="cell_r62"/>
    <g transform="translate(0,10)" s:x="0" s:y="10" s:pid="in0" id="port_r62~R61/R62 junction">
      <text x="-3" y="-4" class="inputPortLabel cell_r62">R61/R62 junction</text>
    </g>
    <g transform="translate(30,10)" s:x="30" s:y="10" s:pid="out0" id="port_r62~R62/C50 junction">
      <text x="5" y="-4" style="fill:#000; stroke:none" class="cell_r62">R62/C50 junction</text>
    </g>
  </g>
  <g s:type="generic" transform="translate(1355,763.5)" s:width="30" s:height="40" id="cell_c50">
    <text x="15" y="-4" class="nodelabel cell_c50" s:attribute="ref">C50 22nF</text>
    <rect width="30" height="40" s:generic="body" class="cell_c50"/>
    <g transform="translate(0,10)" s:x="0" s:y="10" s:pid="in0" id="port_c50~GND">
      <text x="-3" y="-4" class="inputPortLabel cell_c50">GND</text>
    </g>
    <g transform="translate(0,30)" s:x="0" s:y="10" s:pid="in0" id="port_c50~R62/C50 junction">
      <text x="-3" y="-4" class="inputPortLabel cell_c50">R62/C50 junction</text>
    </g>
  </g>
  <g s:type="generic" transform="translate(794.5,453)" s:width="30" s:height="40" id="cell_c137">
    <text x="15" y="-4" class="nodelabel cell_c137" s:attribute="ref">C137 22nF</text>
    <rect width="30" height="20" s:generic="body" class="cell_c137"/>
    <g transform="translate(0,10)" s:x="0" s:y="10" s:pid="in0" id="port_c137~R61/R62 junction">
      <text x="-3" y="-4" class="inputPortLabel cell_c137">R61/R62 junction</text>
    </g>
    <g transform="translate(30,10)" s:x="30" s:y="10" s:pid="out0" id="port_c137~U4c out">
      <text x="5" y="-4" style="fill:#000; stroke:none" class="cell_c137">U4c out</text>
    </g>
  </g>
  <g s:type="generic" transform="translate(1089.5,453)" s:width="30" s:height="40" id="cell_r63">
    <text x="15" y="-4" class="nodelabel cell_r63" s:attribute="ref">R63 50k</text>
    <rect width="30" height="20" s:generic="body" class="cell_r63"/>
    <g transform="translate(0,10)" s:x="0" s:y="10" s:pid="in0" id="port_r63~U4c out">
      <text x="-3" y="-4" class="inputPortLabel cell_r63">U4c out</text>
    </g>
    <g transform="translate(30,10)" s:x="30" s:y="10" s:pid="out0" id="port_r63~R63/R64 junction">
      <text x="5" y="-4" style="fill:#000; stroke:none" class="cell_r63">R63/R64 junction</text>
    </g>
  </g>
  <g s:type="generic" transform="translate(1355,313.5)" s:width="30" s:height="40" id="cell_r64">
    <text x="15" y="-4" class="nodelabel cell_r64" s:attribute="ref">R64 100k</text>
    <rect width="30" height="40" s:generic="body" class="cell_r64"/>
    <g transform="translate(0,10)" s:x="0" s:y="10" s:pid="in0" id="port_r64~+5V">
      <text x="-3" y="-4" class="inputPortLabel cell_r64">+5V</text>
    </g>
    <g transform="translate(0,30)" s:x="0" s:y="10" s:pid="in0" id="port_r64~R63/R64 junction">
      <text x="-3" y="-4" class="inputPortLabel cell_r64">R63/R64 junction</text>
    </g>
  </g>
  <g s:type="inputExt" transform="translate(385,90.5)" s:width="30" s:height="20" id="cell_NOISE 1">
    <text x="15" y="-4" class="nodelabel cell_NOISE 1" s:attribute="ref">NOISE 1</text>
    <s:alias val="$_inputExt_"/>
    <path d="M0,0 L0,20 L15,20 L30,10 L15,0 Z" class="cell_NOISE 1"/>
    <g s:x="28" s:y="10" s:pid="Y"/>
  </g>
  <g s:type="inputExt" transform="translate(385,453.5)" s:width="30" s:height="20" id="cell_NOISE 2">
    <text x="15" y="-4" class="nodelabel cell_NOISE 2" s:attribute="ref">NOISE 2</text>
    <s:alias val="$_inputExt_"/>
    <path d="M0,0 L0,20 L15,20 L30,10 L15,0 Z" class="cell_NOISE 2"/>
    <g s:x="28" s:y="10" s:pid="Y"/>
  </g>
  <g s:type="inputExt" transform="translate(168,22)" s:width="30" s:height="20" id="cell_base missile attenuated">
    <text x="15" y="-4" class="nodelabel cell_base missile attenuated" s:attribute="ref">base missile attenuated</text>
    <s:alias val="$_inputExt_"/>
    <path d="M0,0 L0,20 L15,20 L30,10 L15,0 Z" class="cell_base missile attenuated"/>
    <g s:x="28" s:y="10" s:pid="Y"/>
  </g>
  <g s:type="inputExt" transform="translate(505,241)" s:width="30" s:height="20" id="cell_U8d out">
    <text x="15" y="-4" class="nodelabel cell_U8d out" s:attribute="ref">U8d out</text>
    <s:alias val="$_inputExt_"/>
    <path d="M0,0 L0,20 L15,20 L30,10 L15,0 Z" class="cell_U8d out"/>
    <g s:x="28" s:y="10" s:pid="Y"/>
  </g>
  <g s:type="inputExt" transform="translate(1095,226)" s:width="30" s:height="20" id="cell_tone A in">
    <text x="15" y="-4" class="nodelabel cell_tone A in" s:attribute="ref">tone A in</text>
    <s:alias val="$_inputExt_"/>
    <path d="M0,0 L0,20 L15,20 L30,10 L15,0 Z" class="cell_tone A in"/>
    <g s:x="28" s:y="10" s:pid="Y"/>
  </g>
  <g s:type="inputExt" transform="translate(1095,719)" s:width="30" s:height="20" id="cell_U14 ch B in">
    <text x="15" y="-4" class="nodelabel cell_U14 ch B in" s:attribute="ref">U14 ch B in</text>
    <s:alias val="$_inputExt_"/>
    <path d="M0,0 L0,20 L15,20 L30,10 L15,0 Z" class="cell_U14 ch B in"/>
    <g s:x="28" s:y="10" s:pid="Y"/>
  </g>
  <g s:type="inputExt" transform="translate(1095,586)" s:width="30" s:height="20" id="cell_U14 ch B RO">
    <text x="15" y="-4" class="nodelabel cell_U14 ch B RO" s:attribute="ref">U14 ch B RO</text>
    <s:alias val="$_inputExt_"/>
    <path d="M0,0 L0,20 L15,20 L30,10 L15,0 Z" class="cell_U14 ch B RO"/>
    <g s:x="28" s:y="10" s:pid="Y"/>
  </g>
  <g s:type="inputExt" transform="translate(12,87.5)" s:width="30" s:height="20" id="cell_engine out">
    <text x="15" y="-4" class="nodelabel cell_engine out" s:attribute="ref">engine out</text>
    <s:alias val="$_inputExt_"/>
    <path d="M0,0 L0,20 L15,20 L30,10 L15,0 Z" class="cell_engine out"/>
    <g s:x="28" s:y="10" s:pid="Y"/>
  </g>
  <g s:type="inputExt" transform="translate(1095,784)" s:width="30" s:height="20" id="cell_R62/C50 junction">
    <text x="15" y="-4" class="nodelabel cell_R62/C50 junction" s:attribute="ref">R62/C50 junction</text>
    <s:alias val="$_inputExt_"/>
    <path d="M0,0 L0,20 L15,20 L30,10 L15,0 Z" class="cell_R62/C50 junction"/>
    <g s:x="28" s:y="10" s:pid="Y"/>
  </g>
  <g s:type="inputExt" transform="translate(758,651.5)" s:width="30" s:height="20" id="cell_U4c out">
    <text x="15" y="-4" class="nodelabel cell_U4c out" s:attribute="ref">U4c out</text>
    <s:alias val="$_inputExt_"/>
    <path d="M0,0 L0,20 L15,20 L30,10 L15,0 Z" class="cell_U4c out"/>
    <g s:x="28" s:y="10" s:pid="Y"/>
  </g>
  <g s:type="inputExt" transform="translate(1095,345)" s:width="30" s:height="20" id="cell_R63/R64 junction">
    <text x="15" y="-4" class="nodelabel cell_R63/R64 junction" s:attribute="ref">R63/R64 junction</text>
    <s:alias val="$_inputExt_"/>
    <path d="M0,0 L0,20 L15,20 L30,10 L15,0 Z" class="cell_R63/R64 junction"/>
    <g s:x="28" s:y="10" s:pid="Y"/>
  </g>
  <g s:type="constant" transform="translate(1095,521)" s:width="30" s:height="20" id="cell_0">
    <text x="15" y="-4" class="nodelabel cell_0" s:attribute="ref">0</text>
    <s:alias val="$_constant_"/>
    <rect width="30" height="20" class="cell_0"/>
    <g s:x="30" s:y="10" s:pid="Y"/>
  </g>
  <g s:type="constant" transform="translate(385,210)" s:width="30" s:height="20" id="cell_1">
    <text x="15" y="-4" class="nodelabel cell_1" s:attribute="ref">1</text>
    <s:alias val="$_constant_"/>
    <rect width="30" height="20" class="cell_1"/>
    <g s:x="30" s:y="10" s:pid="Y"/>
  </g>
  <line x1="40" x2="168" y1="97.5" y2="97.5" class="net_16"/>
  <line x1="1125" x2="1243" y1="531" y2="531" class="net_21"/>
  <line x1="1243" x2="1243" y1="531" y2="412" class="net_21"/>
  <circle cx="1243" cy="531" r="2" style="fill:#000" class="net_21"/>
  <line x1="1243" x2="1355" y1="412" y2="412" class="net_21"/>
  <line x1="1125" x2="1355" y1="531" y2="531" class="net_21"/>
  <line x1="1125" x2="1243" y1="531" y2="531" class="net_21"/>
  <line x1="1243" x2="1243" y1="531" y2="774" class="net_21"/>
  <line x1="1243" x2="1355" y1="774" y2="774" class="net_21"/>
  <line x1="789" x2="966" y1="220" y2="220" class="net_6"/>
  <line x1="966" x2="966" y1="220" y2="432" class="net_6"/>
  <line x1="966" x2="1355" y1="432" y2="432" class="net_6"/>
  <line x1="415" x2="758" y1="220" y2="220" class="net_22"/>
  <line x1="415" x2="437" y1="220" y2="220" class="net_22"/>
  <line x1="437" x2="437" y1="220" y2="168.5" class="net_22"/>
  <circle cx="437" cy="220" r="2" style="fill:#000" class="net_22"/>
  <line x1="437" x2="523.3333333333334" y1="168.5" y2="168.5" class="net_22"/>
  <line x1="415" x2="437" y1="220" y2="220" class="net_22"/>
  <line x1="437" x2="437" y1="220" y2="324" class="net_22"/>
  <line x1="437" x2="1355" y1="324" y2="324" class="net_22"/>
  <line x1="533" x2="643" y1="251" y2="251" class="net_5"/>
  <line x1="643" x2="643" y1="251" y2="240" class="net_5"/>
  <line x1="643" x2="758" y1="240" y2="240" class="net_5"/>
  <line x1="554.3333333333334" x2="1355" y1="168.5" y2="168.5" class="net_8"/>
  <line x1="554.3333333333334" x2="653" y1="168.5" y2="168.5" class="net_8"/>
  <line x1="653" x2="653" y1="168.5" y2="100.5" class="net_8"/>
  <circle cx="653" cy="168.5" r="2" style="fill:#000" class="net_8"/>
  <line x1="653" x2="786.3333333333334" y1="100.5" y2="100.5" class="net_8"/>
  <line x1="554.3333333333334" x2="1355" y1="188.5" y2="188.5" class="net_9"/>
  <line x1="554.3333333333334" x2="663" y1="188.5" y2="188.5" class="net_9"/>
  <line x1="663" x2="663" y1="188.5" y2="120.5" class="net_9"/>
  <circle cx="663" cy="188.5" r="2" style="fill:#000" class="net_9"/>
  <line x1="663" x2="786.3333333333334" y1="120.5" y2="120.5" class="net_9"/>
  <line x1="554.3333333333334" x2="976" y1="188.5" y2="188.5" class="net_9"/>
  <line x1="976" x2="976" y1="188.5" y2="301.5" class="net_9"/>
  <circle cx="976" cy="188.5" r="2" style="fill:#000" class="net_9"/>
  <line x1="976" x2="1089.5" y1="301.5" y2="301.5" class="net_9"/>
  <line x1="789" x2="956" y1="240" y2="240" class="net_7"/>
  <line x1="956" x2="956" y1="240" y2="100.5" class="net_7"/>
  <circle cx="956" cy="100.5" r="2" style="fill:#000" class="net_7"/>
  <line x1="956" x2="1095" y1="100.5" y2="100.5" class="net_7"/>
  <line x1="817.3333333333334" x2="1095" y1="100.5" y2="100.5" class="net_7"/>
  <line x1="825.5" x2="1089.5" y1="32.5" y2="32.5" class="net_11"/>
  <line x1="563.5" x2="643" y1="100.5" y2="100.5" class="net_12"/>
  <line x1="643" x2="643" y1="100.5" y2="32.5" class="net_12"/>
  <circle cx="643" cy="32.5" r="2" style="fill:#000" class="net_12"/>
  <line x1="643" x2="794.5" y1="32.5" y2="32.5" class="net_12"/>
  <line x1="536" x2="794.5" y1="32.5" y2="32.5" class="net_12"/>
  <line x1="413" x2="532.5" y1="100.5" y2="100.5" class="net_2"/>
  <line x1="825.5" x2="956" y1="463.5" y2="463.5" class="net_19"/>
  <line x1="956" x2="956" y1="463.5" y2="661.5" class="net_19"/>
  <circle cx="956" cy="463.5" r="2" style="fill:#000" class="net_19"/>
  <circle cx="956" cy="661.5" r="2" style="fill:#000" class="net_19"/>
  <line x1="956" x2="1089.5" y1="661.5" y2="661.5" class="net_19"/>
  <line x1="825.5" x2="1089.5" y1="463.5" y2="463.5" class="net_19"/>
  <line x1="786" x2="1089.5" y1="661.5" y2="661.5" class="net_19"/>
  <line x1="786" x2="956" y1="661.5" y2="661.5" class="net_19"/>
  <line x1="956" x2="956" y1="661.5" y2="463.5" class="net_19"/>
  <line x1="956" x2="1089.5" y1="463.5" y2="463.5" class="net_19"/>
  <line x1="1123" x2="1233" y1="596" y2="596" class="net_15"/>
  <line x1="1233" x2="1233" y1="596" y2="551" class="net_15"/>
  <line x1="1233" x2="1355" y1="551" y2="551" class="net_15"/>
  <line x1="413" x2="505" y1="463.5" y2="463.5" class="net_3"/>
  <line x1="536" x2="643" y1="463.5" y2="463.5" class="net_17"/>
  <line x1="643" x2="643" y1="463.5" y2="859.5" class="net_17"/>
  <circle cx="643" cy="463.5" r="2" style="fill:#000" class="net_17"/>
  <line x1="643" x2="1089.5" y1="859.5" y2="859.5" class="net_17"/>
  <line x1="536" x2="794.5" y1="463.5" y2="463.5" class="net_17"/>
  <line x1="1120.5" x2="1233" y1="859.5" y2="859.5" class="net_18"/>
  <line x1="1233" x2="1233" y1="859.5" y2="794" class="net_18"/>
  <circle cx="1233" cy="794" r="2" style="fill:#000" class="net_18"/>
  <line x1="1233" x2="1355" y1="794" y2="794" class="net_18"/>
  <line x1="1123" x2="1355" y1="794" y2="794" class="net_18"/>
  <line x1="1120.5" x2="1233" y1="463.5" y2="463.5" class="net_20"/>
  <line x1="1233" x2="1233" y1="463.5" y2="344" class="net_20"/>
  <line x1="1233" x2="1355" y1="344" y2="344" class="net_20"/>
  <line x1="1123" x2="1233" y1="355" y2="355" class="net_20"/>
  <line x1="1233" x2="1233" y1="355" y2="344" class="net_20"/>
  <circle cx="1233" cy="355" r="2" style="fill:#000" class="net_20"/>
  <line x1="1233" x2="1355" y1="344" y2="344" class="net_20"/>
  <line x1="199" x2="348" y1="97.5" y2="97.5" class="net_4"/>
  <line x1="348" x2="348" y1="97.5" y2="32" class="net_4"/>
  <line x1="196" x2="348" y1="32" y2="32" class="net_4"/>
  <line x1="1126" x2="1233" y1="100.5" y2="100.5" class="net_10"/>
  <line x1="1233" x2="1233" y1="100.5" y2="32.5" class="net_10"/>
  <line x1="1120.5" x2="1233" y1="32.5" y2="32.5" class="net_10"/>
  <line x1="1120.5" x2="1233" y1="301.5" y2="301.5" class="net_13"/>
  <line x1="1233" x2="1233" y1="301.5" y2="236" class="net_13"/>
  <line x1="1123" x2="1233" y1="236" y2="236" class="net_13"/>
  <line x1="1120.5" x2="1233" y1="661.5" y2="661.5" class="net_14"/>
  <line x1="1123" x2="1233" y1="729" y2="729" class="net_14"/>
  <line x1="1233" x2="1233" y1="729" y2="661.5" class="net_14"/>
</svg>
